<?xml version="1.0" standalone="no"?><!DOCTYPE svg PUBLIC "-//W3C//DTD SVG 1.1//EN" "http://www.w3.org/Graphics/SVG/1.1/DTD/svg11.dtd"><svg t="1743776625631" class="icon" viewBox="0 0 1024 1024" version="1.1" xmlns="http://www.w3.org/2000/svg" p-id="8235" xmlns:xlink="http://www.w3.org/1999/xlink" width="200" height="200"><path d="M753.2032 194.6112H264.8064c-79.5648 0-144.0256 69.12-144.0256 154.368v312.7296c0 85.248 64.4608 154.368 144.0256 154.368h488.3968c79.5136 0 144.0256-69.12 144.0256-154.368V348.928c0-85.1968-64.4608-154.3168-144.0256-154.3168z" fill="#F9D9CB" p-id="8236"></path><path d="M264.8064 194.6112c-79.5648 0-144.0256 69.12-144.0256 154.368v257.024c56.2176 55.6544 127.232 96.1024 208.384 113.5104 232.704 49.9712 459.776-108.1344 507.2384-353.024a475.01312 475.01312 0 0 0 6.2976-138.3424c-24.576-20.9408-55.7056-33.4848-89.5488-33.4848H264.8064z" fill="#FBE4DB" p-id="8237"></path><path d="M753.2032 194.6112H264.8064c-79.5648 0-144.0256 69.12-144.0256 154.368v187.6992c22.3744 8.4992 45.6192 15.4624 69.632 20.5824 252.9792 54.3232 500.1728-106.0352 571.1872-362.3424-2.7648-0.2048-5.5808-0.3072-8.3968-0.3072z" fill="#FFEFEB" p-id="8238"></path><path d="M595.9168 194.6112H264.8064c-79.5648 0-144.0256 69.12-144.0256 154.368V394.24c186.624 33.9456 368.1792-48.7936 475.136-199.6288z" fill="#FEF6F3" p-id="8239"></path><path d="M770.1504 160.256H250.9824c-90.9824 0-164.9664 74.0352-164.9664 164.9664v362.24c0 90.9824 74.0352 164.9664 164.9664 164.9664h519.1168c90.9824 0 164.9664-74.0352 164.9664-164.9664V325.2736c0.0512-90.9824-73.984-165.0176-164.9152-165.0176z m108.6464 527.2576c0 10.24-1.536 20.0704-4.1984 29.4912l-167.8848-219.2384 172.0832-113.3056v303.0528zM250.9824 216.576h519.1168c57.2416 0 104.1408 44.4928 108.288 100.7104l-322.7648 212.48a80.88576 80.88576 0 0 1-89.2416-0.1024L143.7696 316.0576c-0.3072-0.2048-0.6144-0.3072-0.9216-0.512 4.9152-55.3984 51.5072-98.9696 108.1344-98.9696z m-104.9088 498.688c-2.3552-8.9088-3.7376-18.176-3.7376-27.8016V382.6688l171.3152 113.408-167.5776 219.1872z m104.9088 80.896c-28.4672 0-54.272-11.0592-73.6768-29.0304l183.3472-239.872 74.5984 49.408c23.04 15.2576 49.408 22.8352 75.8272 22.8352 26.2656 0 52.5824-7.5264 75.52-22.6816l72.96-48.0256 183.2448 239.2576c-19.2512 17.408-44.6976 28.1088-72.6528 28.1088H250.9824z" fill="#333333" p-id="8240"></path></svg>